<?xml version="1.0" encoding="utf-8"?>
<!-- Generator: Adobe Illustrator 26.0.0, SVG Export Plug-In . SVG Version: 6.00 Build 0)  -->
<svg version="1.1" id="Layer_1" xmlns="http://www.w3.org/2000/svg" xmlns:xlink="http://www.w3.org/1999/xlink" x="0px" y="0px"
	 viewBox="0 0 555.67 227.93" style="enable-background:new 0 0 555.67 227.93;" xml:space="preserve">
<style type="text/css">
	.st0{fill:#00529D;}
	.st1{fill:#E03935;}
</style>
<g>
	<g>
		<polygon class="st0" points="39.85,142.39 39.85,142.39 39.85,142.39 		"/>
		<path class="st0" d="M64.64,117.63c0.43,9.01,2.36,17.61,5.59,25.55c8.44-5.94,16.69-15.66,24.51-25.55H64.64z"/>
		<path class="st0" d="M101.81,77.36h-28.1c-5.33,9.87-8.55,21.05-9.11,32.94h33.01C97.88,98.54,99.32,87.41,101.81,77.36z"/>
		<path class="st0" d="M109.72,55.26c2.99-5.98,6.51-11.17,10.47-15.32c-17.16,4.93-31.81,15.66-41.79,29.93h25.53
			C105.58,64.61,107.5,59.69,109.72,55.26z"/>
		<path class="st0" d="M116.28,58.54c-1.72,3.44-3.29,7.24-4.67,11.33h26.25V37.36C129.96,39.12,122.32,46.47,116.28,58.54z"/>
		<path class="st0" d="M105.22,104.23c8.53-10.75,16.32-19.5,23-20.63c3.56-0.6,6.75,0.91,9.64,3.67v-9.91h-28.48
			C107.24,85.53,105.81,94.61,105.22,104.23z"/>
		<path class="st0" d="M166.78,58.54c-6.04-12.08-13.69-19.42-21.58-21.18v32.51h26.25C170.06,65.78,168.49,61.98,166.78,58.54z"/>
		<path class="st0" d="M154.53,117.63c2.02,4.31,3.82,7.47,5.49,8.12c2.26,0.88,6.91-2.64,12.78-8.12H154.53z"/>
		<path class="st0" d="M178.1,110.3c-0.28-11.88-1.83-23.08-4.43-32.94h-28.48v20.2c2.23,4.08,4.23,8.56,6.06,12.73H178.1z"/>
		<path class="st0" d="M179.14,69.87h25.53c-9.98-14.27-24.63-25-41.79-29.93c3.95,4.15,7.48,9.34,10.47,15.32
			C175.55,59.69,177.47,64.61,179.14,69.87z"/>
		<path class="st0" d="M228.97,74.01c-4.46-1.59-9.72-1.95-14.17-0.12c-1.77,0.73-3.16,1.85-4.7,2.94
			c-0.15,0.11-0.59,0.54-0.77,0.54c0,0-28.1,0-28.1,0c2.14,8.62,3.5,18.04,4.01,27.98c3.61-3.63,7.22-7.26,10.94-10.78
			c3.45-3.27,6.97-6.48,10.71-9.42c3.74-2.93,7.82-5.76,12.55-6.75c3.55-0.74,7.32-0.09,10.59,1.41c3.13,1.43,5.88,3.6,8.26,6.06
			c1.19,1.23,2.17,2.62,3.3,3.9c0.72,0.81,1.29,1.61,1.59,2.35C243.06,91.65,238.5,77.39,228.97,74.01z"/>
	</g>
	<g>
		<path class="st1" d="M98.89,134.87c-4.82,5.57-9.99,11.08-15.42,15.7h18.35C100.58,145.58,99.6,140.33,98.89,134.87z"/>
		<path class="st1" d="M103.92,158.06c-0.02,0-0.03,0-0.05,0c-4.31,0-8.62,0-12.93-0.01c-2.69-0.01-5.38-0.07-8.08-0.1
			c-3.66-0.04-7.09-0.12-10.65,0.86c-3.2,0.88-6.44,2.09-9.77,1.97c-4.51-0.17-8.68-2.76-12.04-5.6c-4.25-3.58-7.84-7.94-10.53-12.8
			c1.42,3.76,3.15,7.41,5.18,10.88c4.05,6.95,10.5,16.77,19.67,16.56c3.45-0.08,7.35-1.14,11.31-2.71l6.97-3.13
			c9.65,11.3,22.49,19.77,37.17,23.99c-3.95-4.15-7.48-9.34-10.47-15.32C107.5,168.24,105.58,163.32,103.92,158.06z"/>
		<path class="st1" d="M129.88,104.67c-2.56-1.07-6.01,1.31-10.21,5.62h15.1C133.09,107.38,131.46,105.33,129.88,104.67z"/>
		<path class="st1" d="M105.44,127.06c0.7,8.38,2.05,16.29,3.95,23.5h28.48v-32.94h-24.68
			C110.76,120.53,108.17,123.74,105.44,127.06z"/>
		<path class="st1" d="M116.28,169.39c6.04,12.08,13.69,19.42,21.58,21.18v-32.51h-26.25C112.99,162.15,114.56,165.95,116.28,169.39
			z"/>
		<path class="st1" d="M145.19,134.08v16.49h8.12C150.64,146.78,147.91,140.65,145.19,134.08z"/>
		<path class="st1" d="M171.45,158.06h-26.25v32.51c7.9-1.76,15.55-9.11,21.58-21.18C168.49,165.95,170.06,162.15,171.45,158.06z"/>
		<path class="st1" d="M176.23,138.43c-4.12,4.99-7.87,9.26-11.1,12.14h8.54C174.68,146.71,175.54,142.66,176.23,138.43z"/>
		<path class="st1" d="M173.34,172.67c-2.99,5.98-6.51,11.17-10.47,15.32c17.15-4.93,31.79-15.67,41.77-29.93h-25.5
			C177.47,163.32,175.55,168.24,173.34,172.67z"/>
		<path class="st1" d="M184.93,127.67c-0.66,8.07-1.92,15.76-3.68,22.9h28.09c5.34-9.87,8.52-21.05,9.08-32.94h-25.32
			C190.3,120.98,187.57,124.38,184.93,127.67z"/>
		<path class="st1" d="M199.36,110.3h19.09c-0.26-5.56-1.1-10.96-2.47-16.14C210.49,98.36,204.88,104.07,199.36,110.3z"/>
	</g>
	<g>
		<path class="st0" d="M277.97,151.14l-40.69-42.54v42.54h-10.82V93.41h12.17l39.6,41.78V93.41h10.91v57.72H277.97z"/>
		<path class="st0" d="M316.22,151.14c-3.19,0-5.89-0.34-8.1-1.01c-2.21-0.67-4-1.75-5.37-3.23c-1.37-1.48-2.36-3.37-2.98-5.66
			c-0.62-2.29-0.92-5.09-0.92-8.39V93.41h11.24v39.43c0,2.46,0.46,4.24,1.38,5.33c0.92,1.09,2.5,1.64,4.74,1.64h28.19
			c2.24,0,3.82-0.55,4.74-1.64c0.92-1.09,1.38-2.87,1.38-5.33V93.41h11.33v39.43c0,3.3-0.31,6.1-0.92,8.39
			c-0.62,2.29-1.61,4.18-2.98,5.66c-1.37,1.48-3.17,2.56-5.41,3.23c-2.24,0.67-4.95,1.01-8.14,1.01H316.22z"/>
		<path class="st0" d="M429.07,151.14v-37.75l-18.29,37.75h-10.49l-18.21-37.75v37.75h-10.4V93.41h12.42l21.56,46.14l21.65-46.14
			h12.17v57.72H429.07z"/>
		<path class="st0" d="M467.32,151.14c-3.52,0-6.43-0.31-8.73-0.92c-2.29-0.61-4.14-1.65-5.54-3.11c-1.4-1.45-2.38-3.38-2.94-5.79
			c-0.56-2.4-0.84-5.37-0.84-8.89v-20.3c0-3.52,0.28-6.49,0.84-8.89c0.56-2.4,1.54-4.33,2.94-5.79c1.4-1.45,3.24-2.49,5.54-3.1
			c2.29-0.61,5.2-0.92,8.73-0.92h30.45c3.41,0,6.28,0.31,8.6,0.92c2.32,0.62,4.18,1.65,5.58,3.1c1.4,1.46,2.39,3.38,2.98,5.79
			c0.59,2.41,0.88,5.37,0.88,8.89v20.3c0,3.52-0.29,6.49-0.88,8.89c-0.59,2.41-1.58,4.33-2.98,5.79c-1.4,1.46-3.26,2.49-5.58,3.11
			c-2.32,0.62-5.19,0.92-8.6,0.92H467.32z M504.49,112.21c0-2.85-0.5-4.79-1.51-5.83c-1.01-1.03-2.77-1.55-5.29-1.55h-30.37
			c-2.52,0-4.28,0.52-5.29,1.55c-1.01,1.04-1.51,2.98-1.51,5.83v20.3c0,1.46,0.11,2.64,0.34,3.57c0.22,0.92,0.6,1.67,1.13,2.22
			c0.53,0.56,1.23,0.95,2.1,1.17c0.87,0.23,1.94,0.34,3.23,0.34h30.37c2.57,0,4.35-0.5,5.33-1.51c0.98-1.01,1.47-2.94,1.47-5.79
			V112.21z"/>
	</g>
	<g>
		<path class="st1" d="M239.26,171h1.45v1.59h-0.41c-1.01,0-1.79-0.6-2.25-1.54c-0.62,1.33-1.68,2-3.2,2
			c-1.63,0-2.78-0.85-3.38-2.41c-0.53-1.52-0.78-1.98-1.38-1.95c-0.62,0.02-0.9,0.6-0.9,2.16v5.26h-2.74v-4.76
			c0.02-3.59,2.05-3.98,2.94-3.98c0.67,0,1.17,0.18,1.63,0.48v-0.09c0.12-4.07,0.67-6.34,3.82-6.34c2.57,0,3.82,1.91,3.82,5.84
			c0,1.13-0.09,2.07-0.3,2.85C238.36,170.56,238.82,171,239.26,171z M235.62,163.59c0-0.83-0.28-1.29-0.78-1.29
			c-0.48,0-0.76,0.46-0.76,1.29v7.03c0,0.83,0.28,1.29,0.76,1.29c0.51,0,0.78-0.46,0.78-1.29V163.59z"/>
		<path class="st1" d="M241.85,176.7c-0.9,0-1.63-0.71-1.63-1.56s0.74-1.59,1.63-1.59c0.87,0,1.61,0.74,1.61,1.59
			S242.73,176.7,241.85,176.7z M247.3,170.12c0,0.46,0.46,0.87,0.9,0.87h1.45v1.59h-0.41c-0.78,0-1.47-0.35-1.93-1.03l-0.18,1.03
			h-6.64V171h4l-0.02-9.42c0-0.09,0.02-0.16,0.16-0.16h3.19c0.12,0,0.16,0,0.16,0.14v0.85c0,0.11-0.05,0.18-0.16,0.18h-0.37
			c-0.12,0-0.14,0.07-0.14,0.23V170.12z M245.69,176.7c-0.9,0-1.63-0.71-1.63-1.56s0.74-1.59,1.63-1.59c0.87,0,1.61,0.74,1.61,1.59
			S246.57,176.7,245.69,176.7z"/>
		<path class="st1" d="M256.24,170.12c0,0.46,0.46,0.87,0.9,0.87h1.45v1.59h-0.41c-0.78,0-1.47-0.35-1.93-1.03l-0.18,1.03h-6.64V171
			h4l-0.02-13.56c0-0.09,0.02-0.16,0.16-0.16h3.19c0.12,0,0.16,0,0.16,0.14v0.85c0,0.11-0.05,0.18-0.16,0.18h-0.37
			c-0.12,0-0.14,0.07-0.14,0.23V170.12z"/>
		<path class="st1" d="M269.76,171v1.59h-3.45c-0.76,0-1.31-0.18-1.72-0.48c-0.48,0.3-1.1,0.48-1.93,0.48h-4.3V171h3.4
			c0,0,1.03,0.02,1.31-0.99l0.16-0.6l-1.52-6.6c-0.05-0.16-0.09-0.23-0.21-0.23h-0.3c-0.12,0-0.16-0.07-0.16-0.18v-0.85
			c0-0.14,0.05-0.14,0.16-0.14h7.31c0.11,0,0.16,0,0.16,0.14v0.85c0,0.11-0.05,0.18-0.16,0.18h-0.3c-0.09,0-0.16,0.09-0.23,0.32
			l-2.14,7.33c-0.07,0.23-0.16,0.44-0.25,0.64c0.3,0.14,0.57,0.11,0.83,0.11H269.76z M263.03,162.72l0.92,4.18
			c1.13-4.14,1.13-4.14,1.15-4.23c0-0.18-0.39-0.18-1.03-0.18C263.35,162.49,262.98,162.54,263.03,162.72z"/>
		<path class="st1" d="M270.54,160.42c-0.9,0-1.63-0.71-1.63-1.56s0.74-1.59,1.63-1.59c0.87,0,1.61,0.74,1.61,1.59
			S271.42,160.42,270.54,160.42z M276.36,170.12c0,0.46,0.46,0.87,0.9,0.87h1.45v1.59h-0.41c-0.78,0-1.47-0.35-1.93-1.03l-0.18,1.03
			h-6.64V171h4l-0.02-9.42c0-0.09,0.02-0.16,0.16-0.16h3.19c0.12,0,0.16,0,0.16,0.14v0.85c0,0.11-0.05,0.18-0.16,0.18h-0.37
			c-0.12,0-0.14,0.07-0.14,0.23V170.12z M274.73,160.42c-0.9,0-1.63-0.71-1.63-1.56s0.74-1.59,1.63-1.59c0.87,0,1.61,0.74,1.61,1.59
			S275.6,160.42,274.73,160.42z"/>
		<path class="st1" d="M278.47,171h3.68c0.35,0,0.53-0.25,0.53-0.96v-12.6c0-0.09,0.02-0.16,0.16-0.16h3.19c0.12,0,0.16,0,0.16,0.14
			v0.85c0,0.11-0.05,0.18-0.16,0.18h-0.37c-0.12,0-0.14,0.07-0.14,0.23v11.35c0,1.49-0.97,2.55-2.3,2.55h-4.76V171z"/>
		<path class="st1" d="M287.35,172.58c0.9-0.6,0.9-1.84,0.9-2.55v-12.6c0-0.09,0.02-0.16,0.16-0.16h3.19c0.11,0,0.16,0,0.16,0.14
			v0.85c0,0.11-0.05,0.18-0.16,0.18h-0.37c-0.12,0-0.14,0.07-0.14,0.23v11.35c0,1.49-0.96,2.55-2.3,2.55H287.35z"/>
		<path class="st1" d="M300.15,173.11c0,0.34-0.28,2.99-3.88,2.99c0,0-0.64,0-1.15-0.35c0-0.44,0-1.06,0-1.06
			c0.35,0.18,0.76,0.25,1.06,0.25c0.53,0,1.15-0.44,1.15-1.31v-1.61c-0.57,0.48-0.85,0.55-1.47,0.55c-1.93,0-2.94-1.79-2.94-5.42
			c0-3.06,0.55-5.75,3.29-5.75h4.46c0.12,0,0.16,0,0.16,0.14v0.85c0,0.11-0.05,0.18-0.16,0.18h-0.37c-0.12,0-0.14,0.07-0.14,0.23
			V173.11z M295.71,169.13c0.02,1.56,0.25,2.14,0.87,2.14c0.46,0,0.74-0.48,0.74-1.36v-5.86c0-0.87-0.28-1.36-0.74-1.36
			c-0.62,0-0.85,0.6-0.87,2.16V169.13z"/>
		<path class="st1" d="M311.64,165.3c-1.03,0.32-0.99,1.08-1.03,3.22l-0.02,1.52c0,0.71,0.25,0.96,0.8,0.96h8.32c0,0,0-0.25,0-9.42
			c0-0.09,0.02-0.16,0.16-0.16h3.2c0.11,0,0.16,0,0.16,0.14v0.85c0,0.11-0.05,0.18-0.16,0.18h-0.37c-0.12,0-0.14,0.07-0.14,0.23
			c0,7.56,0,8.18,0,8.18h1.82v1.59h-14.34c-1.33,0-2.3-1.2-2.3-2.8c-0.18-3.1,1.01-5.1,3.86-5.45L311.64,165.3z M315.57,176.7
			c-0.9,0-1.63-0.71-1.63-1.56s0.74-1.59,1.63-1.59c0.87,0,1.61,0.74,1.61,1.59S316.45,176.7,315.57,176.7z"/>
		<path class="st1" d="M324.17,171h3.68c0.35,0,0.53-0.25,0.53-0.96v-8.46c0-0.09,0.02-0.16,0.16-0.16h3.2c0.11,0,0.16,0,0.16,0.14
			v0.85c0,0.11-0.05,0.18-0.16,0.18h-0.37c-0.12,0-0.14,0.07-0.14,0.23v7.22c0,1.49-0.96,2.55-2.3,2.55h-4.76V171z M326.45,176.7
			c-0.9,0-1.63-0.71-1.63-1.56s0.74-1.59,1.63-1.59c0.87,0,1.61,0.74,1.61,1.59S327.32,176.7,326.45,176.7z M330.29,176.7
			c-0.9,0-1.63-0.71-1.63-1.56s0.74-1.59,1.63-1.59c0.87,0,1.61,0.74,1.61,1.59S331.16,176.7,330.29,176.7z"/>
		<path class="st1" d="M334.68,172.03v-10.46c0-0.09,0.02-0.16,0.16-0.16h3.19c0.12,0,0.16,0,0.16,0.14v0.85
			c0,0.11-0.05,0.18-0.16,0.18h-0.37c-0.11,0-0.14,0.07-0.14,0.23v10.3c0,0.34-0.3,2.99-3.91,2.99c0,0-0.64,0-1.15-0.35
			c0-0.44,0-1.06,0-1.06c0.34,0.18,0.76,0.25,1.06,0.25c0.53,0,1.15-0.44,1.15-1.31V172.03z"/>
		<path class="st1" d="M346.01,172.58h-6.67l0.23-1.59h3.77v-7.29c0-0.83-0.32-1.15-0.92-1.15h-1.93v-1.15h2
			c2.46,0,3.7,1.06,3.7,3.08v5.7c0.05,0.44,0.48,0.8,0.9,0.8h1.45v1.59h-0.41c-0.78,0-1.47-0.35-1.93-1.03L346.01,172.58z"/>
		<path class="st1" d="M349.32,160.42c-0.9,0-1.63-0.71-1.63-1.56s0.74-1.59,1.63-1.59c0.87,0,1.61,0.74,1.61,1.59
			S350.19,160.42,349.32,160.42z M355.14,170.12c0,0.46,0.46,0.87,0.9,0.87h1.45v1.59h-0.41c-0.78,0-1.47-0.35-1.93-1.03l-0.18,1.03
			h-6.64V171h4l-0.02-9.42c0-0.09,0.02-0.16,0.16-0.16h3.19c0.12,0,0.16,0,0.16,0.14v0.85c0,0.11-0.05,0.18-0.16,0.18h-0.37
			c-0.12,0-0.14,0.07-0.14,0.23V170.12z M353.5,160.42c-0.9,0-1.63-0.71-1.63-1.56s0.74-1.59,1.63-1.59c0.87,0,1.61,0.74,1.61,1.59
			S354.38,160.42,353.5,160.42z"/>
		<path class="st1" d="M364.08,170.12c0,0.46,0.46,0.87,0.9,0.87h1.45v1.59h-0.41c-0.78,0-1.47-0.35-1.93-1.03l-0.18,1.03h-6.64V171
			h4l-0.02-13.56c0-0.09,0.02-0.16,0.16-0.16h3.19c0.12,0,0.16,0,0.16,0.14v0.85c0,0.11-0.05,0.18-0.16,0.18h-0.37
			c-0.12,0-0.14,0.07-0.14,0.23V170.12z"/>
		<path class="st1" d="M366.19,171h3.68c0.35,0,0.53-0.25,0.53-0.96v-12.6c0-0.09,0.02-0.16,0.16-0.16h3.19c0.12,0,0.16,0,0.16,0.14
			v0.85c0,0.11-0.05,0.18-0.16,0.18h-0.37c-0.12,0-0.14,0.07-0.14,0.23v11.35c0,1.49-0.97,2.55-2.3,2.55h-4.76V171z"/>
		<path class="st1" d="M395.34,171v1.59h-4.76v-8.87c0-0.83-0.32-1.15-0.92-1.15h-2.85c-0.48,0-0.92,0.48-0.92,0.97
			c0,0.69,0.41,1.26,2.02,2.41c1.43,1.03,1.43,2.51,1.43,3.98l0.02,3.13c0,2.16-2.21,3.26-4.27,3.26c-2.07,0-4.28-1.1-4.28-3.26
			v-4.02h2.83v4.41c0,1.4,0.85,1.72,1.45,1.72c0.6,0,1.43-0.32,1.43-1.72v-2.53c0-1.33-0.14-2.41-0.83-3.15
			c-1.06-1.15-1.98-2.07-1.98-3.26c0-1.79,1.26-3.08,2.83-3.08h3.19c2.46,0,3.7,1.06,3.7,3.08v6.5H395.34z M383.25,180.42
			c-0.9,0-1.63-0.71-1.63-1.56s0.74-1.59,1.63-1.59c0.87,0,1.61,0.74,1.61,1.59S384.12,180.42,383.25,180.42z M387.09,180.42
			c-0.9,0-1.63-0.71-1.63-1.56s0.74-1.59,1.63-1.59c0.87,0,1.61,0.74,1.61,1.59S387.96,180.42,387.09,180.42z"/>
		<path class="st1" d="M395.11,171h3.68c0.35,0,0.53-0.25,0.53-0.96v-12.6c0-0.09,0.02-0.16,0.16-0.16h3.19c0.12,0,0.16,0,0.16,0.14
			v0.85c0,0.11-0.05,0.18-0.16,0.18h-0.37c-0.12,0-0.14,0.07-0.14,0.23v11.35c0,1.49-0.97,2.55-2.3,2.55h-4.76V171z"/>
		<path class="st1" d="M409.64,172.58h-4.73c0,0,0-1.84,0-15.15c0-0.09,0.02-0.16,0.16-0.16h3.19c0.11,0,0.16,0,0.16,0.14v0.85
			c0,0.11-0.05,0.18-0.16,0.18h-0.37c-0.11,0-0.14,0.07-0.14,0.23V171h1.88V172.58z"/>
		<path class="st1" d="M420.81,171v1.59h-3.45c-0.76,0-1.31-0.18-1.72-0.48c-0.48,0.3-1.1,0.48-1.93,0.48h-4.3V171h3.4
			c0,0,1.03,0.02,1.31-0.99l0.16-0.6l-1.52-6.6c-0.05-0.16-0.09-0.23-0.21-0.23h-0.3c-0.12,0-0.16-0.07-0.16-0.18v-0.85
			c0-0.14,0.05-0.14,0.16-0.14h7.31c0.11,0,0.16,0,0.16,0.14v0.85c0,0.11-0.05,0.18-0.16,0.18h-0.3c-0.09,0-0.16,0.09-0.23,0.32
			l-2.14,7.33c-0.07,0.23-0.16,0.44-0.25,0.64c0.3,0.14,0.57,0.11,0.83,0.11H420.81z M414.08,162.72l0.92,4.18
			c1.13-4.14,1.13-4.14,1.15-4.23c0-0.18-0.39-0.18-1.03-0.18C414.4,162.49,414.03,162.54,414.08,162.72z"/>
		<path class="st1" d="M420.58,171h3.68c0.35,0,0.53-0.25,0.53-0.96v-12.6c0-0.09,0.02-0.16,0.16-0.16h3.19c0.12,0,0.16,0,0.16,0.14
			v0.85c0,0.11-0.05,0.18-0.16,0.18h-0.37c-0.12,0-0.14,0.07-0.14,0.23v11.35c0,1.49-0.97,2.55-2.3,2.55h-4.76V171z"/>
		<path class="st1" d="M429.45,172.58c0.9-0.6,0.9-1.84,0.9-2.55v-12.6c0-0.09,0.02-0.16,0.16-0.16h3.2c0.11,0,0.16,0,0.16,0.14
			v0.85c0,0.11-0.05,0.18-0.16,0.18h-0.37c-0.12,0-0.14,0.07-0.14,0.23v11.35c0,1.49-0.96,2.55-2.3,2.55H429.45z"/>
		<path class="st1" d="M448,173.11c0,0.34-0.28,2.99-3.88,2.99c0,0-0.64,0-1.15-0.35v-1.06c0.35,0.18,0.76,0.25,1.06,0.25
			c0.53,0,1.15-0.44,1.15-1.31v-1.06h-1.19c-1.93,0-3.22-1.79-3.22-5.42c0-3.06,0.55-5.75,3.29-5.75h4.46c0.12,0,0.16,0,0.16,0.14
			v0.85c0,0.11-0.05,0.18-0.16,0.18h-0.37c-0.12,0-0.14,0.07-0.14,0.23V171h1.88v1.59H448V173.11z M445.18,171v-6.94
			c0-0.87-0.28-1.36-0.74-1.36c-0.62,0-0.85,0.6-0.87,2.16v4c0.02,1.56,0.3,2.14,0.92,2.14H445.18z"/>
		<path class="st1" d="M449.66,171h2.87c-0.09-0.51-0.14-1.08-0.14-1.72c0-3.42,0.57-5.1,2.02-5.91c0.53-0.28,1.15-0.44,1.79-0.44
			c2.57,0,3.82,1.91,3.82,5.84c0,0.85-0.07,1.59-0.18,2.23h1.45v1.59h-1.91c-0.62,1.31-1.68,1.98-3.17,1.98
			c-1.47,0-2.55-0.69-3.2-1.98h-3.36V171z M456.99,165.11c0-0.83-0.28-1.29-0.78-1.29c-0.48,0-0.76,0.46-0.76,1.29v7.03
			c0,0.83,0.28,1.29,0.76,1.29c0.51,0,0.78-0.46,0.78-1.29V165.11z"/>
		<path class="st1" d="M461.06,171h3.68c0.35,0,0.53-0.25,0.53-0.96v-8.46c0-0.09,0.02-0.16,0.16-0.16h3.19c0.12,0,0.16,0,0.16,0.14
			v0.85c0,0.11-0.05,0.18-0.16,0.18h-0.37c-0.12,0-0.14,0.07-0.14,0.23v7.22c0,1.49-0.97,2.55-2.3,2.55h-4.76V171z M466.53,160.42
			c-0.9,0-1.63-0.71-1.63-1.56s0.74-1.59,1.63-1.59c0.87,0,1.61,0.74,1.61,1.59S467.41,160.42,466.53,160.42z"/>
		<path class="st1" d="M479.5,172.58c-2.44,0-3.82-1.66-3.82-5.06c0-3.42,0.57-4.9,2.02-5.7c0.53-0.28,1.15-0.44,1.79-0.44
			l4.34,0.02c0.12,0,0.16,0,0.16,0.14v0.85c0,0.11-0.05,0.18-0.16,0.18h-0.37c-0.12,0-0.14,0.07-0.14,0.23V171h2.11v1.59H479.5z
			 M477.89,160.42c-0.9,0-1.63-0.71-1.63-1.56s0.74-1.59,1.63-1.59c0.87,0,1.61,0.74,1.61,1.59S478.76,160.42,477.89,160.42z
			 M480.28,171v-8.71h-0.78c-0.48,0-0.76,0.46-0.76,1.29v6.14c0,0.83,0.28,1.29,0.76,1.29H480.28z M481.73,160.42
			c-0.9,0-1.63-0.71-1.63-1.56s0.74-1.59,1.63-1.59c0.87,0,1.61,0.74,1.61,1.59S482.6,160.42,481.73,160.42z"/>
		<path class="st1" d="M493.15,167.16c0,3.63-1.22,5.42-3.15,5.42h-4.78V171h3.91c0.87,0,1.2-0.57,1.22-2.14v-3.72
			c0-2.46-1.22-2.78-3.19-2.78l3.22-5.08h1.91c0,0-1.98,2.57-3.03,4.14C489.24,161.41,493.17,161,493.15,167.16z"/>
		<path class="st1" d="M495.96,161.57c0-0.09,0.02-0.16,0.16-0.16h3.19c0.12,0,0.16,0,0.16,0.14v0.85c0,0.11-0.05,0.18-0.16,0.18
			h-0.37c-0.11,0-0.14,0.07-0.14,0.23V171c0,0,0.48,0,2.34,0v1.59c-1.2,0-2.34,0-2.34,0v0.53c0,0.34-0.3,2.99-3.91,2.99
			c0,0-0.64,0-1.15-0.35v-1.06c0.34,0.18,0.76,0.25,1.06,0.25c0.53,0,1.15-0.44,1.15-1.31V161.57z"/>
		<path class="st1" d="M503.84,171v-9.42c0-0.09,0.02-0.16,0.16-0.16h3.19c0.12,0,0.16,0,0.16,0.14v0.85c0,0.11-0.05,0.18-0.16,0.18
			h-0.37c-0.12,0-0.14,0.07-0.14,0.23v7.42c0,0.48,0.39,0.92,0.85,0.92c0.37,0,0.53-0.28,0.53-0.92v-8.67
			c0-0.09,0.02-0.16,0.16-0.16h3.19c0.12,0,0.16,0,0.16,0.14v0.85c0,0.11-0.05,0.18-0.16,0.18h-0.37c-0.12,0-0.14,0.07-0.14,0.23
			v7.42c0,0.48,0.39,0.92,0.85,0.92c0.37,0,0.53-0.3,0.53-0.92v-8.67c0-0.09,0.02-0.16,0.16-0.16h3.2c0.11,0,0.16,0,0.16,0.14v0.85
			c0,0.11-0.05,0.18-0.16,0.18h-0.37c-0.12,0-0.14,0.07-0.14,0.23v7.33c0,1.59-0.9,2.6-2.32,2.6c-0.78,0-1.22-0.21-2-0.92
			l-0.23-0.23c-0.46,0.76-1.15,1.17-2.02,1.17c-0.71,0-1.2-0.23-1.98-0.94l-0.14,0.76h-5.54V171H503.84z M507.61,160.42
			c-0.9,0-1.63-0.71-1.63-1.56s0.74-1.59,1.63-1.59c0.87,0,1.61,0.74,1.61,1.59S508.48,160.42,507.61,160.42z M509.47,157.18
			c-0.78,0-1.43-0.62-1.43-1.38c0-0.74,0.64-1.38,1.43-1.38c0.76,0,1.43,0.64,1.43,1.38C510.9,156.56,510.23,157.18,509.47,157.18z
			 M511.45,160.42c-0.9,0-1.63-0.71-1.63-1.56s0.74-1.59,1.63-1.59c0.87,0,1.61,0.74,1.61,1.59S512.32,160.42,511.45,160.42z"/>
	</g>
</g>
</svg>
